<?xml version="1.0" encoding="utf-8"?>
<!-- Generator: Adobe Illustrator 25.0.0, SVG Export Plug-In . SVG Version: 6.00 Build 0)  -->
<svg version="1.1" id="Layer_1" xmlns="http://www.w3.org/2000/svg" xmlns:xlink="http://www.w3.org/1999/xlink" x="0px" y="0px"
	 viewBox="0 0 300 58" style="enable-background:new 0 0 300 58;" xml:space="preserve">
<g>
	<g>
		<g>
			<path d="M293.1,57H5.8c-2.5,0-4.9-2.4-4.9-5.3V10.1c0-2.9,2.4-5.3,5.3-5.3h85.4c0.4,0,0.6,0.3,0.6,0.6S92,6.1,91.6,6.1H6.2
				c-2.2,0-4,1.8-4,4v41.5c0,2.2,1.8,4,4,4h287.3c2.2,0,4-1.8,4-4V10.1c0-2.2-1.8-4-4-4H112.4c-0.4,0-0.6-0.3-0.6-0.6
				s0.3-0.6,0.6-0.6h181.2c2.9,0,5.3,2.4,5.3,5.3v41.5C298.9,54.6,296.5,57,293.1,57z"/>
		</g>
	</g>
	<g>
		<g>
			<g>
				<path d="M90.9,35.2c-0.9,2.6-1.8,5.1-2.6,7.7c-0.6,1.9,0.2,3.2,2.2,3.4c1.2,0.1,2.3,0.2,3.5,0.4c3.5,0.4,7.1,0.8,10.7,1.2
					c1.3,0.1,2.4-1.1,2.3-2.5c-0.3-2.8-0.6-5.7-0.9-8.5c0-0.5-0.3-0.5-0.7-0.6c-4.5-0.5-9-1-13.5-1.5c-0.1,0-0.1,0-0.2,0
					C91.2,34.7,91,34.9,90.9,35.2"/>
			</g>
		</g>
		<g>
			<g>
				<path d="M96.2,19.9c-0.6,1.8-1.2,3.6-1.9,5.4c-0.5,1.6-1.1,3.2-1.7,4.9c4.3,0.5,8.6,0.9,12.8,1.4c0-0.2,0-0.3,0-0.5
					c-0.3-3.5-0.6-6.9-0.9-10.4c0-0.4-0.2-0.5-0.6-0.5c-2.4-0.3-4.8-0.5-7.1-0.8c0,0-0.1,0-0.1,0C96.3,19.4,96.3,19.6,96.2,19.9"/>
			</g>
		</g>
		<g>
			<g>
				<path d="M125,31c0.3-0.6,0.6-1.1,0.9-1.7c1.2-2.8,1.3-5.7,0.7-8.6c-0.7-3.6-3.1-5.6-6.8-5.7c-1,0-2,0-3.1,0c-0.2,0-0.5,0-0.7,0
					c-0.4,0-0.9,0-1.3,0c-1.8,0-2.3,0.5-2.3,2.3c0,9.2,0,18.4,0,27.7c0,0.2,0,0.5,0,0.7c0.1,0.9,0.8,1.5,1.6,1.5c2,0,4.1,0.1,6.1,0
					c3.3-0.2,5.5-2,6.3-5.1C127.4,38.1,127.2,34.4,125,31z M117.2,19.7C117.2,19.7,117.3,19.7,117.2,19.7c0.3,0,0.5,0,0.7,0
					c0.8,0,1.6,0,2.4,0.3c0.8,0.3,1.3,1,1.5,1.8c0.4,1.5,0.4,3,0,4.5c-0.3,1.4-1.1,2.1-2.5,2.2c-0.7,0.1-1.3,0-2.1,0V19.7z
					 M121.8,40.2c-0.4,1.4-1.3,2-2.7,2.1c-0.2,0-0.5,0-0.7,0c-0.4,0-0.8,0-1.2,0v-8.9c0.8,0,1.6-0.1,2.4,0c1.2,0.1,1.9,0.9,2.2,2
					C122.2,37,122.2,38.6,121.8,40.2z"/>
			</g>
		</g>
		<g>
			<g>
				<path d="M134.1,14.9c-1.7,0-2.3,0.6-2.3,2.3c0,9.2,0,18.4,0,27.6c0,0.3,0,0.7,0.1,1c0.2,0.8,0.8,1.3,1.5,1.3c3.5,0,7,0,10.5,0
					c0.8,0,1.5-0.7,1.6-1.5c0-0.3,0-0.6,0-0.9c0-1.8-0.6-2.3-2.3-2.3c-2.1,0-4.3,0-6.5,0v-0.9V21.5c0-1.6,0-3.2,0-4.8
					c0-1.1-0.7-1.7-1.8-1.8c-0.1,0-0.2,0-0.3,0C134.4,14.9,134.3,14.9,134.1,14.9"/>
			</g>
		</g>
		<g>
			<g>
				<path d="M151.8,14.9c-1.4,0-2,0.7-2,2c0,9.4,0,18.8,0,28.2c0,1.4,0.7,2,2,2c0.9,0,1.9,0,2.8,0c2.1,0,4.1,0,6.2,0
					c2.2,0.1,2.9-0.5,2.8-2.8c-0.1-1.4-0.7-2-2-2c-1.4,0-2.7,0-4.1,0c-0.7,0-1.4,0-2,0h-0.8v-8.9c1.9,0,3.7,0,5.5,0
					c0.3,0,0.6,0,0.9-0.1c0.8-0.2,1.3-0.8,1.3-1.8c0-1.1,0.2-2.3-1.2-2.8c-0.2-0.1-0.5-0.1-0.7-0.1c0,0-0.1,0-0.1,0
					c-1.9,0-3.7,0-5.6,0v-8.9c2.1,0,4.1-0.1,6.1,0c2.2,0.1,3-0.4,2.8-2.8c-0.1-1.3-0.6-2-2-2c-1.6,0-3.2,0-4.8,0
					C155.1,14.9,153.5,14.9,151.8,14.9"/>
			</g>
		</g>
		<g>
			<g>
				<path d="M60.6,14.9c-2.4,0.3-4.4,1.4-5.4,3.6c-1.6,3.4-1.6,6.8,0.6,10c0.8,1.2,2,2.2,3.1,3.2c1.3,1.1,2.7,2.1,3.9,3.2
					c0.8,0.7,1.5,1.6,2,2.5c0.8,1.4,0.3,3.5-0.7,4.3c-1.8,1.3-4.3,0.4-4.8-1.7c-0.1-0.6-0.2-1.2-0.2-1.8c0.1-2.1-0.3-3-2.9-2.9
					c-1.3,0.1-2,0.7-2,2c0,1.1,0.1,2.3,0.2,3.4c0.5,3.4,2.4,5.6,5.5,6.2c1,0.2,2.1,0.3,3.1,0.2c2.7-0.2,5.1-1.2,6.1-3.9
					c1.5-3.7,1.2-7.2-1.5-10.3c-1-1.1-2.3-2.1-3.4-3.1c-1.4-1.2-2.8-2.4-4.1-3.7c-1.1-1.1-1.3-2.5-1-4c0.3-1.5,1.2-2.2,2.6-2.3
					c1.6-0.1,2.6,0.5,3,2c0.2,0.9,0.3,1.9,0.4,2.9c0.1,1.4,0.6,2,2.1,2.1c2,0.1,2.9-0.3,2.8-2.7c-0.1-1-0.2-2-0.4-3
					C69,17.6,67,15.5,63.9,15c-0.6-0.1-1.2-0.1-1.8-0.1C61.6,14.8,61.1,14.9,60.6,14.9"/>
			</g>
		</g>
		<g>
			<g>
				<path d="M72,17.7c0.1,1.3,0.7,2,2,2c1.2,0,2.3,0,3.6,0v1v24.1c0,0.2,0,0.4,0,0.6c0,1.1,0.7,1.7,1.8,1.8c0.3,0,0.6,0,0.9,0
					c1.6,0,2.2-0.6,2.2-2.2c0-8.1,0-16.2,0-24.3v-0.9c1.4,0,2.6,0,3.9,0c1.1,0,1.7-0.7,1.8-1.8c0-0.3,0-0.6,0-0.9
					c0-1.6-0.6-2.2-2.2-2.2c-1.1,0-2.3,0-3.4,0c-2.5,0-5,0-7.5,0c-0.1,0-0.2,0-0.2,0C72.7,14.8,71.8,15.2,72,17.7"/>
			</g>
		</g>
		<g>
			<g>
				<path d="M11.8,16.1v23.6c0,0.2,0.1,0.5,0.1,0.7c0.4,3.3,2.1,5.6,5,6.3c1.8,0.5,3.6,0.5,5.3,0.1c2.2-0.5,3.9-1.9,4.6-4.1
					c0.4-1.3,0.7-2.6,0.7-3.9c0.1-5.7,0-11.5,0-17.2c0-1.7,0-3.3,0-5c0-1-0.6-1.6-1.6-1.8c-0.3,0-0.7,0-1,0c-1.6,0-2.2,0.6-2.2,2.2
					c0,7.1,0,14.2,0,21.3c0,0.7-0.1,1.4-0.3,2.1c-0.4,1.2-1.4,1.8-2.8,1.8c-1.4,0-2.4-0.7-2.7-1.9c-0.2-0.7-0.3-1.5-0.3-2.3
					c0-5.5,0-10.9,0-16.4c0-1.7,0-3.4,0-5c0-0.7-0.3-1.3-1-1.6c-0.4-0.2-0.8-0.3-1.3-0.3C13.3,14.7,12.3,15.2,11.8,16.1"/>
			</g>
		</g>
		<g>
			<g>
				<path d="M34,17.2c0,9.1,0,18.3,0,27.4c0,0.3,0,0.6,0,0.9c0.1,0.9,0.8,1.5,1.7,1.5c0.3,0,0.6,0,0.9,0c1.7,0,2.3-0.5,2.3-2.3
					c0-4.9,0-9.7,0-14.6c0,0,0.1,0,0.1,0c0.1,0.2,0.2,0.4,0.3,0.6c2,5,4,9.9,6,14.9c0.4,1.1,1,1.4,2.1,1.4c0.2,0,0.4,0,0.6,0
					c1.2,0,1.9-0.7,1.9-1.9c0-0.4,0-0.8,0-1.2c0-9,0-18,0-27c0-1-0.4-1.7-1.2-2c-0.3-0.1-0.7-0.1-1.1-0.1c-2.2,0-2.7,0.4-2.7,2.6
					c0,4.5,0,9,0,13.5c0,0.2,0,0.5,0,0.7c-0.2-0.2-0.3-0.5-0.4-0.7c-2-4.9-4-9.9-6-14.8c-0.2-0.4-0.5-0.9-0.9-1.1
					c-0.5-0.3-1-0.4-1.4-0.4C35,14.7,34,15.7,34,17.2"/>
			</g>
		</g>
		<g>
			<g>
				<path d="M102.6,1c-1.6,4.6-3.1,9.2-4.7,13.8c2.1,0.2,4.1,0.5,6.2,0.7c-0.4-4.9-0.9-9.7-1.3-14.5C102.7,1,102.7,1,102.6,1z"/>
			</g>
		</g>
	</g>
	<g>
		<path d="M187.9,26.4c1.3,0,2.5,0.3,3.6,1.1c0.5,0.4,1.3,0.3,1.7-0.1v0c0.6-0.6,0.5-1.5-0.1-2c-1.4-1-3.2-1.6-5.3-1.6
			c-5,0-8.7,3.5-8.7,8.2c0,4.8,3.7,8.2,8.6,8.2c2,0,4.2-0.6,5.8-1.7c0.3-0.2,0.5-0.6,0.5-1v-5.1c0-0.4-0.3-0.7-0.7-0.7l-4.8,0
			c-0.6,0-1.1,0.5-1.1,1.1l0,0c0,0.6,0.5,1.1,1.1,1.1h2.7v2.8c-1,0.6-2.1,0.8-3.3,0.8c-3.4,0-5.8-2.4-5.8-5.6
			C182.1,28.7,184.5,26.4,187.9,26.4z"/>
		<path d="M207.5,25L201.6,38c-0.4,0.9,0.3,1.9,1.3,1.9h0c0.6,0,1.1-0.3,1.3-0.8l1.2-2.9h8l1.2,2.9c0.2,0.5,0.7,0.8,1.3,0.8h0.1
			c1,0,1.7-1,1.3-1.9L211.3,25c-0.3-0.6-0.9-1-1.5-1H209C208.3,24,207.7,24.4,207.5,25z M206.4,33.9l3-7l3,7H206.4z"/>
		<path d="M239.8,24.7l-5.8,9.9l-6-9.9c-0.2-0.4-0.7-0.7-1.2-0.7h-0.3c-0.8,0-1.4,0.6-1.4,1.4v13.2c0,0.8,0.6,1.4,1.4,1.4h0
			c0.8,0,1.4-0.6,1.4-1.4v-9.1l4.9,8.1c0.2,0.4,0.6,0.6,1,0.6l0,0c0.4,0,0.8-0.2,1-0.6l4.9-8.2l0,9.2c0,0.8,0.6,1.4,1.4,1.4l0,0
			c0.8,0,1.4-0.6,1.4-1.4l0-13.2c0-0.8-0.6-1.4-1.4-1.4H241C240.5,24,240,24.2,239.8,24.7z"/>
		<path d="M255,33.1h6.5c0.7,0,1.2-0.5,1.2-1.2v0c0-0.7-0.5-1.2-1.2-1.2H255v-4.2h7.5c0.7,0,1.2-0.5,1.2-1.2v0
			c0-0.7-0.5-1.2-1.2-1.2h-9.2c-0.7,0-1.2,0.5-1.2,1.2v13.6c0,0.7,0.5,1.2,1.2,1.2h9.6c0.7,0,1.2-0.5,1.2-1.2v0
			c0-0.7-0.5-1.2-1.2-1.2H255V33.1z"/>
		<path d="M274.3,28.4c0-1.2,1-2.2,3.5-2.2c1,0,2.2,0.2,3.3,0.7c0.6,0.3,1.4,0,1.7-0.7v0c0.3-0.6,0-1.4-0.7-1.6
			c-1.3-0.5-2.8-0.8-4.2-0.8c-4.4,0-6.4,2.2-6.4,4.8c0,5.9,9.5,3.7,9.5,7.1c0,1.2-1.1,2.1-3.5,2.1c-1.5,0-3-0.4-4.2-1
			c-0.6-0.3-1.4-0.1-1.7,0.6l0,0c-0.3,0.6,0,1.3,0.5,1.6c1.4,0.8,3.4,1.3,5.4,1.3c4.4,0,6.5-2.2,6.5-4.8
			C283.8,29.6,274.3,31.8,274.3,28.4z"/>
	</g>
</g>
</svg>
